<?xml version="1.0" encoding="UTF-8"?>
<svg width="708px" height="377px" viewBox="0 0 708 377" version="1.1" xmlns="http://www.w3.org/2000/svg" xmlns:xlink="http://www.w3.org/1999/xlink">
    <!-- Generator: Sketch 63.1 (92452) - https://sketch.com -->
    <title>logo Cartão Aliança</title>
    <desc>Created with Sketch.</desc>
    <g id="logo" stroke="none" stroke-width="1" fill="none" fill-rule="evenodd">
        <g id="Artboard" transform="translate(-50.000000, -56.000000)" fill-rule="nonzero">
            <g id="logo-Cartão-Aliança" transform="translate(50.000000, 56.000000)">
                <path d="M32.53,211.55 C19.48,211.55 12.95,220.87 12.95,236.55 C12.95,252.82 18.34,262.86 32.74,262.55 C35.2916432,262.605813 37.8379602,262.292576 40.3,261.62 C42.17,261 42.48,260.17 42.48,258.2 L42.48,249.92 L53.04,250.64 L53.04,268.56 C47.35,271.56 39.16,272.81 32.53,272.81 C11.53,272.81 0,261 0,237.38 C0,210.38 16.58,201.33 32.53,201.33 C39.2474973,201.344537 45.8860122,202.779247 52.01,205.54 L52.01,223.15 L41.44,223.87 L41.44,215.79 C41.44,213.79 41.13,213 39.27,212.37 C37.072035,211.786446 34.8037688,211.510485 32.53,211.55 Z" id="Path" fill="#2C2B6E"></path>
                <path d="M109.19,259.92 C109.19,262.2 109.81,262.82 111.78,262.92 L115.09,263.12 L115.09,271.41 L98.62,271.41 L98.62,265.41 L98.31,265.31 C95.0977111,269.982394 89.7901023,272.772723 84.12,272.770002 C69.51,272.770002 63.4,262.41 63.4,247.6 C63.4,229.36 72.1,217.76 90.75,217.76 C97.0513865,217.958721 103.278862,219.177875 109.19,221.37 L109.19,259.92 Z M97.19,228.12 C94.6311771,227.173838 91.9176131,226.715924 89.19,226.77 C79.34,226.77 76.03,235.99 76.03,247.18 C76.03,255.78 78.1,263.96 86.8,263.96 C93.23,263.96 97.16,259.41 97.16,254.96 L97.19,228.12 Z" id="Shape" fill="#2C2B6E"></path>
                <path d="M128.87,231.13 C128.87,228.85 128.25,228.13 126.28,228.02 L121.93,227.71 L121.93,219.37 L139.43,219.37 L139.43,227.14 C142.105718,221.437524 147.840985,217.79986 154.14,217.81 C157.590574,217.769916 161.001165,218.551439 164.09,220.09 L164.09,235.53 L154.46,236.25 L154.46,231.49 C154.46,230.24 154.25,229.31 153.46,228.9 C152.58111,228.507074 151.621364,228.328836 150.66,228.38 C145.07,228.38 141.24,232.83 141.24,238.84 L141.24,262.84 L150.24,263.26 L150.24,271.44 L122.45,271.44 L122.45,263.57 L125.86,263.26 C127.86,263.05 128.86,262.43 128.86,259.84 L128.87,231.13 Z" id="Path" fill="#2C2B6E"></path>
                <path d="M189.57,208.37 L189.57,219.37 L203.35,219.37 L202.35,228.07 L189.57,228.07 L189.57,255.31 C189.57,261.63 192.06,263.5 196.31,263.5 C198.797213,263.417785 201.215909,262.664534 203.31,261.32 L206.42,269.32 C203.31,271.49 198.13,272.94 193.26,272.94 C177.1,272.94 177.2,263 177.2,255.75 L177.2,228.02 L169.85,228.02 L170.85,220.46 C178.1,219.83 180.58,214.24 182.76,208.33 L189.57,208.37 Z" id="Path" fill="#2C2B6E"></path>
                <path d="M257.94,259.92 C257.94,262.2 258.56,262.82 260.53,262.92 L263.85,263.12 L263.85,271.41 L247.38,271.41 L247.38,265.41 L247.06,265.31 C243.847711,269.982394 238.540102,272.772723 232.87,272.770002 C218.27,272.770002 212.15,262.41 212.15,247.6 C212.15,229.36 220.86,217.76 239.5,217.76 C245.801386,217.958721 252.028862,219.177875 257.94,221.37 L257.94,259.92 Z M221.17,206.05 C223.76,200.36 227.69,197.87 231.73,197.87 C236.5,197.87 241.68,200.77 245.61,200.77 C247.17,200.77 248.93,199.53 250.17,197.46 L255.77,200.46 C253.38,206.68 250.07,209.46 245.1,209.46 C240.85,209.46 235.57,206.67 232.15,206.67 C229.35,206.67 228.31,207.18 226.15,209.67 L221.17,206.05 Z M245.93,228.12 C243.370568,227.176123 240.657439,226.718282 237.93,226.77 C228.09,226.77 224.77,235.99 224.77,247.18 C224.77,255.78 226.84,263.96 235.55,263.96 C241.97,263.96 245.91,259.41 245.91,254.96 L245.93,228.12 Z" id="Shape" fill="#2C2B6E"></path>
                <path d="M295.85,217.76 C303.52,217.76 318.96,220.14 318.96,243.97 C318.96,263.86 307.87,272.97 294.2,272.97 C280.32,272.97 271.2,264.06 271.2,245.31 C271.2,223.77 285.18,217.76 295.85,217.76 Z M306.32,245.63 C306.32,234.03 303.52,226.88 295.23,226.88 C286.94,226.88 283.73,233.88 283.73,243.88 C283.73,253.51 285.08,263.88 295.03,263.88 C303.11,263.86 306.32,256.37 306.32,245.63 Z" id="Shape" fill="#2C2B6E"></path>
                <path d="M369.01,211.55 L362.48,210.92 L362.48,202.53 L386.21,202.53 L407.34,262.31 L407.44,262.31 L413.35,262.62 L413.35,271.42 L386.6,271.42 L386.6,263.03 L390.54,262.72 C392.71,262.51 393.75,261.89 393.02,259.61 L390.85,253.19 L366.61,253.19 L363.5,262.31 L369.71,262.62 L369.71,271.42 L345.78,271.42 L345.78,263.03 L349.2,262.72 C350.96,262.51 351.59,261.79 352.31,259.82 L369.01,211.55 Z M369.11,243.66 L388.38,243.66 L379.01,214.14 L378.7,214.14 L369.11,243.66 Z" id="Shape" fill="#2C2B6E"></path>
                <path d="M436.84,262.82 L442.74,263.13 L442.74,271.42 L418.09,271.42 L418.09,263.55 L421.51,263.24 C423.37,263.03 424.51,262.41 424.51,259.92 L424.51,208.85 C424.51,206.99 423.51,206.47 421.92,206.37 L418.3,206.16 L418.3,197.56 L436.84,197.56 L436.84,262.82 Z" id="Path" fill="#2C2B6E"></path>
                <path d="M468.95,262.82 L474.86,263.13 L474.86,271.42 L450.2,271.42 L450.2,263.55 L453.62,263.24 C455.49,263.03 456.62,262.41 456.62,259.92 L456.62,231.13 C456.62,228.85 456,228.13 454.03,228.13 L450.41,227.92 L450.41,219.37 L468.95,219.37 L468.95,262.82 Z M461.7,197.15 C463.787742,197.089664 465.809377,197.885565 467.295662,199.352965 C468.781948,200.820365 469.603634,202.831657 469.57,204.92 C469.57,209.27 466.26,212.48 461.57,212.48 C456.88,212.48 453.69,209.27 453.69,204.92 C453.627219,202.79829 454.459294,200.747927 455.982878,199.269994 C457.506462,197.792061 459.581181,197.022724 461.7,197.15 Z" id="Shape" fill="#2C2B6E"></path>
                <path d="M528.41,259.92 C528.41,262.2 529.03,262.82 531,262.92 L534.32,263.12 L534.32,271.41 L517.85,271.41 L517.85,265.41 L517.53,265.31 C514.317711,269.982394 509.010102,272.772723 503.34,272.770002 C488.74,272.770002 482.62,262.41 482.62,247.6 C482.62,229.36 491.33,217.76 509.97,217.76 C516.271386,217.958721 522.498862,219.177875 528.41,221.37 L528.41,259.92 Z M516.41,228.12 C513.850568,227.176123 511.137439,226.718282 508.41,226.77 C498.57,226.77 495.25,235.99 495.25,247.18 C495.25,255.78 497.32,263.96 506.03,263.96 C512.45,263.96 516.39,259.41 516.39,254.96 L516.41,228.12 Z" id="Shape" fill="#2C2B6E"></path>
                <path d="M541.01,219.37 L558.51,219.37 L558.51,226.1 C562.432986,220.779592 568.690755,217.689841 575.3,217.81 C585.66,217.81 591.77,223.61 591.77,235.81 L591.77,262.81 L597.67,263.12 L597.67,271.41 L573.06,271.41 L573.06,263.54 L576.48,263.23 C578.48,263.02 579.48,262.4 579.48,259.81 L579.48,238.48 C579.48,231.64 578.03,227.29 570.99,227.29 C568.159252,227.16729 565.404394,228.224113 563.382009,230.20859 C561.359624,232.193067 560.250869,234.927437 560.32,237.76 L560.32,262.82 L566.22,263.13 L566.22,271.42 L541.57,271.42 L541.57,263.55 L544.98,263.24 C546.98,263.03 547.98,262.41 547.98,259.82 L547.98,231.13 C547.98,228.85 547.25,228.02 545.39,227.91 L541.04,227.6 L541.01,219.37 Z" id="Path" fill="#2C2B6E"></path>
                <path d="M642.67,258.89 L647.12,266.89 C642.477318,270.558637 636.774807,272.631321 630.86,272.8 L629.62,277.98 C635.11,278.39 639.25,281.19 639.25,286.47 C639.25,294.04 632.31,296.52 626.61,296.52 C623.412804,296.503375 620.248653,295.871903 617.29,294.66 L618.95,289.27 C621.187311,290.047936 623.524214,290.502521 625.89,290.62 C629.51,290.62 630.89,288.86 630.89,286.78 C630.89,283.57 627.26,282.85 621.77,282.85 L625.01,272.56 C612.26,271.01 604.91,261.68 604.91,246.04 C604.91,225.04 617.86,217.759795 629.56,217.759795 C635.225545,217.739853 640.797396,219.205223 645.72,222.01 L645.72,235.48 L636.19,236.2 L636.19,231.2 C636.19,229.2 635.88,228.3 634.02,227.68 C632.730893,227.250386 631.378675,227.040792 630.02,227.06 C621.73,227.06 617.48,233.27 617.48,244.77 C617.48,256.06 621.63,263.31 630.85,263.31 C634.8,263.37 638.42,262 642.67,258.89 Z" id="Path" fill="#2C2B6E"></path>
                <path d="M701.2,259.92 C701.2,262.2 701.82,262.82 703.79,262.92 L707.1,263.12 L707.1,271.41 L690.63,271.41 L690.63,265.41 L690.32,265.31 C687.107711,269.982394 681.800102,272.772723 676.13,272.770002 C661.52,272.770002 655.41,262.41 655.41,247.6 C655.41,229.36 664.11,217.76 682.76,217.76 C689.061386,217.958721 695.288862,219.177875 701.2,221.37 L701.2,259.92 Z M689.2,228.12 C686.641055,227.174297 683.927578,226.716398 681.2,226.77 C671.36,226.77 668.05,235.99 668.05,247.18 C668.05,255.78 670.12,263.96 678.82,263.96 C685.24,263.96 689.18,259.41 689.18,254.96 L689.2,228.12 Z" id="Shape" fill="#2C2B6E"></path>
                <path d="M282.43,140.57 C276.408621,141.303671 270.929787,137.024435 270.183189,131.004645 C269.436591,124.984856 273.704053,119.496846 279.722226,118.737324 C285.740398,117.977803 291.237559,122.233472 292.01,128.25 C292.383594,131.149667 291.587475,134.078772 289.797477,136.390384 C288.007479,138.701996 285.370877,140.205922 282.47,140.57 M270.78,183.26 C271.294724,184.742898 272.435819,185.924224 273.9,186.49 C277.786522,187.999902 282.202941,186.879737 284.9,183.7 C295.9,170.82 305.1,160.7 312.63,152.41 C331.38,131.81 341.04,121.19 338.63,109.57 C336.02,96.86 321.63,91.97 292.03,81.89 C284.03,79.18 274.9,76.07 266.09,72.89 C258.01,70.03 248.35,71.89 246.09,81.21 C245.509815,83.9822749 245.668448,86.8583485 246.55,89.55 C248.46,96.22 252.05,98.83 258.79,101.64 C301.97,119.64 322.98,109.38 273.65,173.48 C271.12,176.72 269.01,178.81 270.74,183.26 L270.78,183.26 Z" id="Shape" fill="#F0AB3B"></path>
                <path d="M440.55,97.45 C445.793702,97.9542248 449.636231,102.613198 449.133283,107.857022 C448.630336,113.100847 443.972299,116.944511 438.728352,116.44284 C433.484404,115.94117 429.639607,111.284069 430.14,106.04 C430.377882,103.519009 431.609287,101.196337 433.562389,99.5846998 C435.515491,97.9730622 438.029693,97.2049792 440.55,97.45 M458.55,63.61 C458.402215,62.2636703 457.671089,61.0500022 456.55,60.29 C453.559999,58.285303 449.629498,58.3895816 446.75,60.55 C435.01,69.37 425.31,76.14 417.37,81.69 C397.58,95.52 387.37,102.69 387.2,112.92 C386.97,124.16 398.2,131.03 421.28,145.2 C427.51,149.02 434.65,153.39 441.49,157.72 C447.77,161.72 456.29,161.95 459.99,154.51 C461.014708,152.281648 461.428841,149.821011 461.19,147.38 C460.86,141.38 458.32,138.48 453.19,134.83 C420.19,111.42 400.44,116.03 454.36,71.29 C457.01,69.06 459.16,67.7 458.58,63.61 L458.55,63.61 Z" id="Shape" fill="#88BA25"></path>
                <path d="M343.8,27.72 C344.628705,22.4746585 348.53764,18.2461472 353.701836,17.0086349 C358.866032,15.7711227 364.26694,17.7686876 367.383034,22.0687247 C370.499128,26.3687619 370.71581,32.1231625 367.931919,36.6453642 C365.148028,41.1675659 359.912638,43.5656418 354.67,42.72 C347.529699,41.5738351 342.666036,34.8622487 343.8,27.72 M299.01,0.04 C297.145077,0.129862638 295.41458,1.03718469 294.28,2.52 C291.27546,6.44276418 291.075006,11.8349855 293.78,15.97 C304.78,32.82 313.27,46.75 320.18,58.13 C337.4,86.46 346.27,101.05 360.35,102.23 C375.73,103.53 386.15,88.76 407.6,58.33 C413.38,50.13 420,40.73 426.53,31.73 C432.53,23.47 433.63,11.82 423.75,6.09 C420.787521,4.49112004 417.454754,3.70450405 414.09,3.81 C405.83,3.75 401.64,6.97 396.18,13.73 C361.18,56.99 365.76,84.4 309.18,6.55 C306.33,2.68 304.65,-0.39 299.01,0.04 Z" id="Shape" fill="#A8348A"></path>
                <path d="M320.95,336.07 C317.259719,335.494973 313.540893,335.121087 309.81,334.95 C310.71359,336.379115 311.243172,338.012566 311.35,339.7 C311.79,347.53 302.42,356.52 290.65,363.43 C277.58,371.15 261.49,376.43 251.98,376.95 C245.49,377.31 230.98,373.95 230.55,366.13 C229.72,351.2 266.81,334.81 295,333.23 C298.287804,333.059999 301.582196,333.059999 304.87,333.23 C301.52,329.72 293.14,327.57 285.39,325.93 C279.68,324.7 274.11,323.61 270.48,322.46 C269.030756,322.093687 267.711734,321.332047 266.67,320.26 C263.74,317.14 266.67,312.26 271.49,308.1 C279.11,301.5 293.09,295.54 304.74,294.89 C312.1,294.47 317.58,298.73 317.96,305.56 C318.29,311.32 300.96,321.83 296.66,322.07 C296.12,322.07 295.66,321.72 296.41,321.28 C303.52,316.28 314.02,305.92 313.73,300.76 C313.65,299.29 312.51,298.21 309.73,298.37 C291.92,299.37 267.73,315.97 273.78,320.87 C274.84,321.69 280.06,322.53 286.38,323.87 C294.38,325.57 304.09,328.25 308.68,333.43 C312.72076,333.82351 316.730034,334.491723 320.68,335.43 C321.39,335.51 321.56,336.17 320.95,336.07 Z M306.11,334.89 C303.83,334.89 301.55,335.01 299.34,335.13 C268.94,336.84 234.72,357.7 235.34,368.95 C235.51,372.1 241.34,372.78 243.47,372.66 C255.59,371.98 270.92,366.28 283.35,359.14 C296.75,351.46 306.78,342.24 306.45,336.35 C306.399639,335.850784 306.285371,335.360104 306.11,334.89 L306.11,334.89 Z" id="Shape" fill="#88BA25"></path>
                <path d="M349.55,330.9 C350.7,332.25 351.88,334.06 351.85,334.67 C351.837103,334.79115 351.796005,334.907594 351.73,335.01 L350.16,337.01 C344.71,344.01 341.55,350.01 341.55,351.2 C341.55,351.4 341.55,351.53 341.91,351.51 C343.38,351.43 354.38,341.51 362.73,332.41 C363.18,331.92 363.67,332.41 363.37,332.91 C360.47,337.51 345.66,354.91 341.51,356.37 C341.405204,356.416571 341.29393,356.446919 341.18,356.46 C338.63,356.6 334.65,352.59 334.71,350.04 C334.705383,349.810083 334.735729,349.580799 334.8,349.36 C335.14,348.2 337.35,344.58 342.08,337.8 L337.82,342.14 C330.71,349.46 321.76,357.48 319.15,357.63 C317.2,357.74 312.61,353.7 312.43,350.48 C312.19,346.2 318.16,337.6 325.43,330.81 C331.62,325.02 338.75,320.32 343.57,320.05 C348.86,319.76 353.34,323.05 353.57,327.05 C353.62,327.99 351.57,329.78 349.55,330.9 Z M346.21,328.9 C346.15,328.9 346.53,328.48 347.64,329.16 C348.034471,329.399911 348.391608,329.696402 348.7,330.04 C350.31,327.6 350.7,325.63 350.39,324.37 C350.117206,323.40846 349.149238,322.819832 348.17,323.02 C347.604063,323.052384 347.043722,323.149689 346.5,323.31 C341.68,324.63 336.01,329.11 331.01,334.37 C323.84,341.89 318.01,350.22 318.12,352.49 C318.12,352.69 318.21,352.96 318.68,352.93 C321.23,352.79 346.27,334.59 346.51,329.34 C346.490063,329.144668 346.37878,328.970325 346.21,328.87 L346.21,328.9 Z" id="Shape" fill="#88BA25"></path>
                <path d="M394.46,328.05 C388.91,335.68 382.01,347.42 382.01,348.83 C382.01,349.03 382.09,349.16 382.36,349.15 C383.77,349.07 394.57,339.26 402.99,330.15 C403.43,329.66 403.99,330.1 403.68,330.58 C402.32,332.58 399.31,336.47 395.15,341.34 C390.99,346.21 383.44,354.09 381.43,354.2 C378.89,354.34 375.43,350.1 375.28,347.56 C375.16,345.42 380.12,337.95 383.21,333.14 C375.91,341.95 364.97,352.97 361.21,355.2 C361.105985,355.24873 360.994353,355.279175 360.88,355.29 C359.349315,355.186944 357.92666,354.464785 356.94,353.29 C355.23,351.57 353.94,349.63 353.81,347.76 C353.67,345.28 361.06,334.59 367.64,324.88 C368.618124,323.53587 369.37439,322.043594 369.88,320.46 C370.02,319.51 369.4,319.14 368.72,319.04 C368.85,318.97 370.03,318.43 371.72,319.82 C373.71507,321.254945 374.991448,323.483137 375.22,325.93 C375.217749,326.073653 375.179958,326.214512 375.11,326.34 C375.11,326.34 370.66,331.97 368.29,335.26 C363.43,342.04 360.01,348.21 360.09,349.55 C360.09,349.82 360.26,350.22 360.66,350.19 C362.94,350.07 384.66,330.51 389.35,323.93 C390.35,322.53 391.64,320.45 391.41,318.71 C391.410345,318.271572 391.145607,317.87644 390.74,317.71 C391.847386,317.587837 392.950497,317.973926 393.74,318.76 C396.42,320.96 397.29,323.33 397.27,324.27 C397.265432,324.413319 397.227784,324.553641 397.16,324.68 C397.16,324.68 395.9,326.02 394.46,328.05 Z M375.08,315.3 C374.67,315.3 374.83,314.57 375.36,314.3 C380.55,312.3 388.36,306.65 392.06,301.95 C392.88,300.95 393.06,300.21 392.59,299.5 C392.52,299.43 392.73,299.42 392.86,299.5 C394.31,300.16 394.94,301.81 395.03,303.5 C395.09,304.57 395.03,307.5 393.5,308.42 C388.17,311.61 377.62,315.09 375.08,315.3 Z" id="Shape" fill="#88BA25"></path>
                <path d="M422.64,346.55 C422.64,346.75 422.73,346.88 422.99,346.86 C424.4,346.79 435.2,336.98 443.62,327.86 C444.06,327.37 444.62,327.8 444.32,328.29 C442.95,330.29 439.95,334.18 435.79,339.05 C431.63,343.92 424.08,351.8 422.07,351.91 C420.957436,351.852722 419.898324,351.414955 419.07,350.67 C417.39,349.35 415.94,347.55 415.94,346.28 C415.941586,345.906767 416.012805,345.537107 416.15,345.19 C417.50514,341.757015 419.161609,338.45077 421.1,335.31 L417.8,338.78 C410.8,346.1 403.21,352.9 400.6,353.05 C398.73,353.15 394.35,349.3 393.9,346.17 C393.868664,344.428445 394.281659,342.707632 395.1,341.17 C399.16,332.28 413.86,317.62 423.1,315.82 C423.7,315.72 423.84,315.72 423.9,315.71 C426.748431,315.661196 429.410523,317.121543 430.9,319.55 C436.15,311.33 441.9,302.01 444.09,297.32 C445.41,294.49 445.89,292.24 444.65,291.71 C444.59,291.71 445.16,291.14 446.91,292.46 C448.31,293.52 451.35,297.38 451.340025,298.32 C451.335432,298.463319 451.297784,298.603641 451.23,298.73 L435.57,323.73 C435.16,324.22 422.48,343.74 422.64,346.55 Z M399.54,347.91 C399.531343,348.040175 399.58367,348.166982 399.681611,348.25317 C399.779551,348.339357 399.911982,348.375138 400.04,348.35 C402.32,348.23 417.77,337.62 424.44,328.35 C425.67,326.35 429.21,321.16 429.14,319.82 C428.988266,319.027907 428.25112,318.487043 427.45,318.58 C419.35,319.03 406.69,335.26 402.68,341.46 C400.08,345.53 399.44,347.18 399.54,347.91 Z" id="Shape" fill="#88BA25"></path>
                <path d="M465.01,313.47 C469.1,313.24 473.01,317.19 473.2,320.6 C473.39,324.01 457.41,335.93 445.2,336.69 C443.495781,339.162948 442.411914,342.009813 442.04,344.99 C442.04,345.99 442.78,346.36 443.86,346.3 C447.4,346.1 453.45,342.6 457.41,340.16 C464.181867,336.058883 470.544385,331.317133 476.41,326 C476.67,325.78 477.41,326.28 477.12,326.56 C468.49,336.85 451.98,350.21 445.28,350.56 C442.07,350.74 436.28,345.9 436.04,342.62 C435.84,340.21 436.94,337.2 438.78,334.07 C441.91,328.79 447.69,322.89 452.78,319.18 C457.33,315.92 461.64,313.66 465.01,313.47 Z M446.46,334.87 C451.76,333.49 458.46,328.87 462.92,325.21 C467.6,321.32 469.31,318.34 469.27,317.53 C469.27,316.93 468.83,316.82 468.36,316.85 C463.01,317.15 452.83,326.65 446.5,334.87 L446.46,334.87 Z" id="Shape" fill="#88BA25"></path>
            </g>
        </g>
    </g>
</svg>